# xmcd
#
# Track frame offsets: 
#        150
#        26935
#        52017
#        76600
#        90872
#        111887
#        133137
#        153775
#        178617
#        207415
#        229482
#
# Disc length: 3307 seconds
#
# Revision: 0
# Processed by: cddbd v1.5.1PL2 Copyright (c) Steve Scherf et al.
# Submitted via: ExactAudioCopy v0.95b4
#
DISCID=8b0ce90b
DTITLE=Randy Sabien - Fiddlehead Blues
DYEAR=1988
DGENRE=Blues
TTITLE0=Good Queen Bess
TTITLE1=Summertime
TTITLE2=Once Upon A Time
TTITLE3=Lady Madonna
TTITLE4=Hot 'Lanta
TTITLE5=Shadowtime
TTITLE6=Things Ain't What They Used To Be
TTITLE7=It Don't Mean A Thing
TTITLE8=Black Peter
TTITLE9=JD Meets The Rhythm Section
TTITLE10=Iko Iko
EXTD=
EXTT0=
EXTT1=
EXTT2=
EXTT3=
EXTT4=
EXTT5=
EXTT6=
EXTT7=
EXTT8=
EXTT9=
EXTT10=
PLAYORDER=
